<?xml version="1.0" encoding="UTF-8" standalone="no"?>
<!-- Created with Inkscape (http://www.inkscape.org/) -->

<svg
   xmlns:dc="http://purl.org/dc/elements/1.1/"
   xmlns:cc="http://creativecommons.org/ns#"
   xmlns:rdf="http://www.w3.org/1999/02/22-rdf-syntax-ns#"
   xmlns:svg="http://www.w3.org/2000/svg"
   xmlns="http://www.w3.org/2000/svg"
   xmlns:sodipodi="http://sodipodi.sourceforge.net/DTD/sodipodi-0.dtd"
   xmlns:inkscape="http://www.inkscape.org/namespaces/inkscape"
   width="744.09448819"
   height="1052.3622047"
   id="svg2"
   version="1.1"
   inkscape:version="0.47pre4 r22446"
   sodipodi:docname="New document 1">
  <defs
     id="defs4">
    <inkscape:perspective
       sodipodi:type="inkscape:persp3d"
       inkscape:vp_x="0 : 526.18109 : 1"
       inkscape:vp_y="0 : 1000 : 0"
       inkscape:vp_z="744.09448 : 526.18109 : 1"
       inkscape:persp3d-origin="372.04724 : 350.78739 : 1"
       id="perspective10" />
    <filter
       inkscape:collect="always"
       id="filter5094"
       x="-0.11594869"
       width="1.2318974"
       y="-0.19582445"
       height="1.3916489">
      <feGaussianBlur
         inkscape:collect="always"
         stdDeviation="7.8121459"
         id="feGaussianBlur5096" />
    </filter>
    <filter
       inkscape:collect="always"
       id="filter5168"
       x="-0.41336051"
       width="1.826721"
       y="-1.1102517"
       height="3.2205033">
      <feGaussianBlur
         inkscape:collect="always"
         stdDeviation="64.023287"
         id="feGaussianBlur5170" />
    </filter>
  </defs>
  <sodipodi:namedview
     id="base"
     pagecolor="#ffffff"
     bordercolor="#666666"
     borderopacity="1.0"
     inkscape:pageopacity="0.0"
     inkscape:pageshadow="2"
     inkscape:zoom="1"
     inkscape:cx="353.68351"
     inkscape:cy="788.17878"
     inkscape:document-units="px"
     inkscape:current-layer="layer1"
     showgrid="false"
     inkscape:window-width="1280"
     inkscape:window-height="720"
     inkscape:window-x="0"
     inkscape:window-y="0"
     inkscape:window-maximized="1" />
  <metadata
     id="metadata7">
    <rdf:RDF>
      <cc:Work
         rdf:about="">
        <dc:format>image/svg+xml</dc:format>
        <dc:type
           rdf:resource="http://purl.org/dc/dcmitype/StillImage" />
        <dc:title></dc:title>
      </cc:Work>
    </rdf:RDF>
  </metadata>
  <g
     inkscape:label="Layer 1"
     inkscape:groupmode="layer"
     id="layer1">
    <flowRoot
       xml:space="preserve"
       id="flowRoot2816"
       style="font-size:40px;font-style:normal;font-weight:normal;fill:#000000;fill-opacity:1;stroke:none;font-family:Bitstream Vera Sans"
       transform="translate(140.42553,-19.562)"><flowRegion
         id="flowRegion2818"><rect
           id="rect2820"
           width="231.91489"
           height="57.446808"
           x="121.2766"
           y="45.979202" /></flowRegion><flowPara
         id="flowPara2822">Mary Reilly</flowPara></flowRoot>    <flowRoot
       xml:space="preserve"
       id="flowRoot2824"
       style="font-size:40px;font-style:normal;font-weight:normal;fill:#00000e;fill-opacity:1;stroke:none;font-family:Bitstream Vera Sans"
       transform="translate(91.046979,192.83759)"><flowRegion
         id="flowRegion2826"><rect
           id="rect2828"
           width="312.76596"
           height="65.957451"
           x="140.42554"
           y="260.87283"
           style="fill:#00000e;fill-opacity:1" /></flowRegion><flowPara
         id="flowPara2830">George Barton</flowPara></flowRoot>    <flowRoot
       xml:space="preserve"
       id="flowRoot2832"
       style="font-size:40px;font-style:normal;font-weight:normal;fill:#000000;fill-opacity:1;stroke:none;font-family:Bitstream Vera Sans"
       transform="translate(85.106383,-12.765958)"><flowRegion
         id="flowRegion2834"><rect
           id="rect2836"
           width="280.85107"
           height="61.702126"
           x="153.19148"
           y="709.80902" /></flowRegion><flowPara
         id="flowPara2838">Susan Tracey</flowPara></flowRoot>    <path
       sodipodi:type="arc"
       style="fill:none;stroke:#0000ff;stroke-width:0.01062992;stroke-linecap:round;stroke-linejoin:round;stroke-miterlimit:26;stroke-opacity:0;stroke-dasharray:none;stroke-dashoffset:0"
       id="path2840"
       sodipodi:cx="360.63831"
       sodipodi:cy="154.48984"
       sodipodi:rx="26.595745"
       sodipodi:ry="31.914894"
       d="m 387.23405,154.48984 a 26.595745,31.914894 0 1 1 -53.19149,0 26.595745,31.914894 0 1 1 53.19149,0 z" />
    <path
       sodipodi:type="arc"
       style="fill:none;stroke:#0000ff;stroke-width:0.01062992;stroke-linecap:round;stroke-linejoin:round;stroke-miterlimit:26;stroke-opacity:0;stroke-dasharray:none;stroke-dashoffset:0"
       id="path2842"
       sodipodi:cx="380.85107"
       sodipodi:cy="182.14941"
       sodipodi:rx="63.829788"
       sodipodi:ry="44.680851"
       d="m 444.68086,182.14941 a 63.829788,44.680851 0 1 1 -127.65957,0 63.829788,44.680851 0 1 1 127.65957,0 z" />
    <path
       sodipodi:type="arc"
       style="color:#000000;fill:none;stroke:#0000ff;stroke-width:0.01062992;stroke-linecap:round;stroke-linejoin:round;stroke-miterlimit:26;stroke-opacity:0;stroke-dasharray:none;stroke-dashoffset:0;marker:none;visibility:visible;display:inline;overflow:visible;enable-background:accumulate"
       id="path3616"
       sodipodi:cx="617.0213"
       sodipodi:cy="259.80899"
       sodipodi:rx="19.148935"
       sodipodi:ry="45.744682"
       d="m 636.17024,259.80899 a 19.148935,45.744682 0 1 1 -38.29787,0 19.148935,45.744682 0 1 1 38.29787,0 z" />
    <path
       sodipodi:type="arc"
       style="color:#000000;fill:#0000ce;fill-opacity:1;stroke:#000015;stroke-width:19.63130986;stroke-linecap:square;stroke-linejoin:round;stroke-miterlimit:26;stroke-opacity:0;stroke-dasharray:none;stroke-dashoffset:0;marker:none;visibility:visible;display:inline;overflow:visible;enable-background:accumulate;filter:url(#filter5094)"
       id="path3618"
       sodipodi:cx="404.25531"
       sodipodi:cy="204.48984"
       sodipodi:rx="80.851067"
       sodipodi:ry="47.872341"
       d="m 485.10638,204.48984 a 80.851067,47.872341 0 1 1 -161.70214,0 80.851067,47.872341 0 1 1 161.70214,0 z"
       transform="matrix(0.39509075,0,0,0.71116803,212.62288,-10.085735)" />
    <path
       sodipodi:type="arc"
       style="color:#000000;fill:#0000ce;fill-opacity:1;stroke:#0000ff;stroke-width:0.01062992;stroke-linecap:round;stroke-linejoin:round;stroke-miterlimit:26;stroke-opacity:0;stroke-dasharray:none;stroke-dashoffset:0;marker:none;visibility:visible;display:inline;overflow:visible;enable-background:accumulate"
       id="path5098"
       sodipodi:cx="395.74469"
       sodipodi:cy="249.1707"
       sodipodi:rx="40.425533"
       sodipodi:ry="67.021278"
       d="m 436.17022,249.1707 a 40.425533,67.021278 0 1 1 -80.85106,0 40.425533,67.021278 0 1 1 80.85106,0 z"
       transform="matrix(0.78978569,0,0,1.0000088,57.659283,-6.3851763)" />
    <rect
       style="fill:#0000d6;fill-opacity:1;fill-rule:nonzero;stroke:#000015;stroke-width:10.40600013999999973;stroke-linecap:square;stroke-linejoin:round;stroke-miterlimit:26;stroke-opacity:0;stroke-dasharray:none;stroke-dashoffset:0"
       id="rect5102"
       width="25.531916"
       height="25.531916"
       x="357.44681"
       y="160.87282"
       rx="22.80369"
       ry="22.80369" />
    <path
       style="fill:#0000d6;fill-opacity:1;fill-rule:nonzero;stroke:#000015;stroke-width:10.40600014;stroke-linecap:square;stroke-linejoin:round;stroke-miterlimit:26;stroke-opacity:0;stroke-dasharray:none;stroke-dashoffset:0"
       id="path5104"
       d="m 338.7024,202.0203 c -9.78609,-0.22739 -19.45695,-1.53782 -29.23466,-0.58836 -10.5505,2.72338 -28.52407,13.94893 18.48739,-11.63191 0.55082,-0.29972 -0.99701,0.76957 -1.42637,1.22662 -0.67771,0.72141 -1.47102,2.04446 -2.00617,2.88297 -1.54954,3.17866 -3.45798,5.97456 -6.23099,8.18518 -0.94869,27.40069 -25.60067,9.99298 -35.86453,18.82774 36.09291,-21.39867 27.6209,-21.99341 22.41883,-8.40789 -1.19492,3.58696 -1.33981,7.38911 -1.47888,11.13378 -0.10487,4.22905 -0.081,8.45997 -0.0733,12.68993 0.01,4.26167 0.0151,8.52334 0.018,12.78502 -0.0428,4.15076 0.23642,8.3055 -0.42739,12.41686 0,0 -28.25654,13.70924 -28.25654,13.70924 l 0,0 c 0.93606,-3.9412 0.89284,-7.85669 0.78078,-11.90678 -0.002,-4.26045 -0.005,-8.52091 -0.0149,-12.78135 -0.01,-4.25531 -0.032,-8.51087 0.0156,-12.76603 0.0756,-3.97483 0.14281,-7.98386 0.98591,-11.88604 0.43948,-1.62898 1.16153,-2.99882 1.71092,-4.55925 4.75769,-13.51344 -6.83631,-1.62947 28.82983,-20.244 11.26179,-3.85694 29.32232,-9.18103 -17.95313,12.28713 3.2846,-1.37028 5.2032,-3.52279 6.8949,-6.60249 6.27221,-14.21433 23.26438,-21.58206 38.22788,-23.48977 10.00932,-0.24581 20.00116,0.9048 30.01201,0.25423 0,0 -25.41512,18.46517 -25.41512,18.46517 z" />
    <path
       style="fill:#0000d6;fill-opacity:1;fill-rule:nonzero;stroke:#000015;stroke-width:10.40600014;stroke-linecap:square;stroke-linejoin:round;stroke-miterlimit:26;stroke-opacity:0;stroke-dasharray:none;stroke-dashoffset:0"
       id="path5106"
       d="m 402.71622,186.66599 c 3.89306,-2.03714 7.78662,-4.2384 11.90524,-5.81622 4.05934,-1.31095 8.34107,-1.44217 12.5672,-1.54591 3.62495,1.00748 7.49268,1.09577 11.04204,2.30516 3.38837,0.98994 6.76171,1.64102 9.76208,3.5844 3.00821,1.66961 5.4004,4.13534 7.35771,6.93527 2.21612,2.72485 4.12198,5.77116 5.61382,8.95433 1.5434,2.82162 3.10736,5.65962 4.37292,8.62061 1.87192,2.94883 2.8047,6.3165 3.89973,9.59846 1.33214,3.83858 3.05418,7.51023 4.52453,11.29086 1.45917,2.9405 2.82516,5.8957 4.46211,8.74533 1.95417,2.67173 4.44877,4.83817 6.65967,7.275 1.81174,2.49654 3.50524,5.12439 5.67829,7.32665 1.70971,2.5004 4.14321,4.11171 6.44482,5.95696 2.63557,1.51987 5.17921,3.0815 8.15948,3.83147 2.22379,-0.13007 4.4115,-0.57654 6.35815,-1.7189 0.47205,-0.27701 1.74945,-1.30626 1.27258,-1.03762 -8.59015,4.83935 -17.08811,9.84056 -25.63217,14.76083 1.51154,-1.41211 0.7739,-0.70598 2.21422,-2.11704 0,0 28.94785,-12.35043 28.94785,-12.35043 l 0,0 c -1.20505,1.8523 -0.51806,1.0135 -2.04662,2.52807 -7.3614,4.45722 -23.71042,20.55665 -37.10322,17.6263 -3.12672,-1.16863 -6.05381,-2.84556 -8.80598,-4.7261 -2.51152,-1.85384 -4.77358,-3.93405 -6.71721,-6.39319 -2.06168,-2.31394 -3.86008,-4.83508 -5.66218,-7.35291 -2.40636,-2.54968 -4.92914,-4.99768 -6.96605,-7.87036 -1.79805,-2.97008 -3.18356,-6.1137 -4.69502,-9.23277 -1.41083,-3.84202 -3.09652,-7.57832 -4.56248,-11.40029 -1.09289,-3.2004 -2.07347,-6.45744 -3.8689,-9.35252 -1.21829,-2.94274 -2.81942,-5.72495 -4.30762,-8.53604 -1.3685,-3.023 -3.21276,-5.86205 -5.28775,-8.4439 -1.7933,-2.39302 -4.04265,-4.35912 -6.69901,-5.75926 -2.96338,-1.39825 -6.17084,-1.99628 -9.28794,-2.96252 -3.42459,-0.6878 -6.9007,-1.44574 -10.39246,-1.56241 -4.06003,0.25398 -8.13319,0.68817 -11.8641,2.4447 -4.04828,1.95996 -8.08289,3.94846 -12.01673,6.13006 0,0 24.673,-19.73607 24.673,-19.73607 z" />
    <path
       style="fill:#0000d6;fill-opacity:1;fill-rule:nonzero;stroke:#000015;stroke-width:10.40600014;stroke-linecap:square;stroke-linejoin:round;stroke-miterlimit:26;stroke-opacity:0;stroke-dasharray:none;stroke-dashoffset:0"
       id="path5108"
       d="m 382.32244,294.49968 c 1.1571,3.92033 2.94878,7.50413 5.01156,11.00652 2.07644,3.60138 2.67987,7.66118 3.03492,11.73223 0.48057,4.36594 0.0924,8.65316 -0.63458,12.95764 -0.56706,4.30381 -1.19225,8.57132 -2.07036,12.82378 -0.45481,3.90746 -1.50458,7.67195 -2.41604,11.48361 -0.65455,3.7677 -0.88381,7.52706 -2.0056,11.1993 -1.13729,3.50809 -2.83374,6.7924 -4.07642,10.2545 -0.89949,3.37302 -1.74725,6.80428 -3.28246,9.9519 -1.935,2.63936 -4.25552,5.0034 -6.67252,7.20733 -2.29628,2.30063 -4.88576,4.28412 -6.78381,6.94188 -7.76899,11.19902 -21.15319,19.12609 -34.6812,20.84146 -7.09061,1.36469 -14.4707,0.77346 -21.71194,0.63199 -4.93994,-0.11256 -9.8799,-0.22232 -14.82038,-0.3078 0,0 25.18416,-18.18658 25.18416,-18.18658 l 0,0 c 4.80264,0.19562 9.60407,0.42389 14.40864,0.56907 7.38335,0.14064 14.74338,0.14942 21.94044,-1.72993 1.05213,-0.35269 4.01464,-1.87671 3.05996,-1.31106 -62.23016,36.87102 -26.75616,19.34388 -22.31765,11.87632 2.42301,-2.76322 -0.41082,0.63971 1.8363,-2.67873 1.23803,-1.82826 3.29047,-3.10461 4.86066,-4.60919 2.1412,-2.38031 4.69593,-4.36612 6.78424,-6.77605 2.51067,-2.11219 2.99964,-5.95192 3.8081,-8.99244 0.93212,-3.67835 2.81197,-6.86045 3.99354,-10.44706 1.60167,-3.44223 1.86847,-7.02746 2.21023,-10.76988 0.72672,-3.88039 2.23535,-7.52761 2.51235,-11.4921 0.82871,-4.24167 1.7798,-8.41539 2.10709,-12.73966 0.70399,-4.08635 1.49017,-8.07751 0.94571,-12.25336 -0.23628,-3.61349 -0.57931,-7.25729 -2.38316,-10.4827 -2.04122,-3.57082 -3.77453,-7.24961 -5.29842,-11.06761 0,0 27.45664,-15.63338 27.45664,-15.63338 z" />
    <path
       style="fill:#00bad6;fill-opacity:1;fill-rule:nonzero;stroke:#000015;stroke-width:22.14042664000000116;stroke-linecap:square;stroke-linejoin:round;stroke-miterlimit:26;stroke-opacity:0;stroke-dasharray:none;stroke-dashoffset:0"
       d="m 356.32535,301.03126 c -20.61596,-22.01551 -22.52479,-91.291 -3.0184,-109.54439 3.13264,-2.93142 5.45635,-6.17198 5.16379,-7.20124 -0.67731,-2.38295 0.059,-2.35035 7.06358,0.31279 4.37546,1.66355 6.88832,1.43496 10.54193,-0.95898 4.29389,-2.81347 5.12525,-2.7636 7.92561,0.47539 7.11165,8.22557 7.74628,11.62004 2.95796,15.82143 l -4.55291,3.99484 5.05782,-2.46747 c 6.50329,-3.17263 7.77784,-1.17313 11.09925,17.41235 3.11822,17.44846 1.47123,48.35256 -3.27092,61.37577 -4.74887,13.04163 -9.74669,20.41453 -11.69804,17.25719 -1.09747,-1.77575 -4.22794,-0.94993 -10.93729,2.88524 -11.43476,6.5363 -10.83026,6.51272 -16.33238,0.63708 z"
       id="path5114" />
    <path
       style="fill:#f4bad6;fill-opacity:1;fill-rule:nonzero;stroke:#000015;stroke-width:22.14042664000000116;stroke-linecap:square;stroke-linejoin:round;stroke-miterlimit:26;stroke-opacity:0;stroke-dasharray:none;stroke-dashoffset:0"
       d="m 464.70222,268.14724 c -8.09142,-8.55655 -15.02219,-19.37549 -23.48312,-36.65719 -14.56563,-29.75072 -18.39831,-33.11837 -37.69161,-33.11837 -7.52057,0 -13.67377,-0.71808 -13.67377,-1.59574 0,-0.87766 -187.20894,58.69463 -186.43073,60.10638 5.8756,10.65894 200.55107,-45.92914 195.21277,-65.2308 -1.61734,-5.84781 19.72443,-15.03219 25.26052,-11.30635 99.67422,67.08175 369.59686,488.35831 39.64665,-96.711088 -2.64522,-4.690512 95.47117,-18.120793 99.92875,-7.366503 8.18918,19.75705 -78.30165,175.641501 -66.97678,183.996731 l 6.18963,4.56656 -4.81966,3.45704 -4.81966,3.45704 6.38298,-1.18426 c 6.16652,-1.1441 6.09437,-0.99963 -2.12766,4.25992 -13.4938,8.63185 -19.23686,7.45616 -32.59831,-6.67337 l 0,0 z"
       id="path5116"
       sodipodi:nodetypes="csssssssscccccscc" />
    <path
       style="fill:#00bad6;fill-opacity:1;fill-rule:nonzero;stroke:#000015;stroke-width:22.14042664;stroke-linecap:square;stroke-linejoin:round;stroke-miterlimit:26;stroke-opacity:0;stroke-dasharray:none;stroke-dashoffset:0"
       d="m 276.70095,250.75236 c 0.88524,-29.54261 2.24478,-34.59353 10.37663,-38.55089 3.60696,-1.75532 10.52873,-7.18234 15.38173,-12.06004 5.07794,-5.10379 13.01655,-10.29722 18.7008,-12.23404 10.77327,-3.67082 34.65106,-4.59424 34.65106,-1.34005 0,1.114 -4.32363,5.00018 -9.60807,8.63597 -8.40724,5.78433 -10.7654,6.43697 -18.86821,5.22188 -8.85488,-1.32787 -9.32648,-1.12437 -10.77575,4.65 -1.98239,7.89848 -5.02577,11.3816 -9.94466,11.3816 -3.64903,0 -3.9948,1.89416 -3.9948,21.88376 l 0,21.88377 -13.29787,6.56073 -13.29787,6.56074 0.67701,-22.59343 z"
       id="path5118" />
    <path
       style="fill:#00bad6;fill-opacity:1;fill-rule:nonzero;stroke:#000015;stroke-width:22.14042664;stroke-linecap:square;stroke-linejoin:round;stroke-miterlimit:26;stroke-opacity:0;stroke-dasharray:none;stroke-dashoffset:0"
       d="m 296.2367,420.02941 c 0,-0.57518 4.78945,-4.48667 10.64322,-8.69218 9.55445,-6.86419 12.03083,-7.6464 24.20757,-7.6464 8.72321,0 14.40652,-1.01476 15.92404,-2.84326 4.13846,-4.98654 -20.83896,-6.08023 -16.56021,-29.07163 4.171,-22.4124 33.68398,-45.19567 28.37243,-55.59585 -2.81662,-5.51501 -2.67177,-5.69505 10.02691,-12.46338 7.08665,-3.77714 13.61282,-6.04625 14.50261,-5.04245 0.88978,1.0038 2.79109,6.19533 4.22512,11.53674 2.16478,8.06329 2.00513,13.24681 -0.9406,30.53959 -5.51818,32.39417 -9.93803,42.94829 -23.97748,57.25554 -12.79575,13.03983 -24.59987,20.47498 -32.79984,20.65988 -2.6952,0.0608 -11.36313,0.6277 -19.26207,1.25984 -7.89893,0.63215 -14.3617,0.67875 -14.3617,0.10356 z"
       id="path5120"
       sodipodi:nodetypes="cssssssssssssc" />
    <path
       style="fill:#00bad6;fill-opacity:1;fill-rule:nonzero;stroke:#000015;stroke-width:10.40600014;stroke-linecap:square;stroke-linejoin:round;stroke-miterlimit:26;stroke-opacity:0;stroke-dasharray:none;stroke-dashoffset:0"
       id="path5122"
       d="m 366.02094,297.13028 c 6.00149,-5.11064 11.56516,-10.68715 17.74131,-15.59837 9.06515,-2.7972 24.10461,-18.40757 37.80868,-18.87987 3.0863,-0.10637 4.52066,0.47008 7.62986,1.18486 12.5317,3.15369 24.17249,9.34848 34.06216,17.60538 4.9416,4.44282 7.40291,9.95315 8.23167,16.40791 0.1494,3.80897 -279.7958,-49.92422 -279.33284,-46.14868 0.48,4.3886 423.8793,23.69897 423.84199,28.10685 0.0544,6.85397 -194.19129,47.71753 -192.96435,54.49671 1.72769,5.73232 58.05593,16.39191 62.8981,18.94719 0.67965,0.30586 1.3593,0.61173 2.03895,0.91759 0.71037,0.21071 1.45294,0.33363 2.13111,0.63214 1.48492,0.65362 2.75092,1.73905 4.2258,2.415 1.80819,0.82871 3.16854,1.06329 5.1147,1.5496 4.64932,1.00542 105.14754,162.96889 109.88674,163.12758 0,0 -121.07036,-143.49853 -121.07036,-143.49853 l 0,0 c -4.85228,-0.33242 -9.70799,-0.82156 -14.42804,-2.0559 -4.90399,-1.47257 -51.93543,83.33085 -56.58308,81.21996 -5.59708,-3.10284 31.53896,-93.72594 29.52759,-100.21167 -1.20341,-6.88384 69.18291,43.59275 -1.08041,-20.8238 -0.0947,-4.26902 -0.12478,-8.54609 -0.48943,-12.80289 -0.41669,-3.8119 -1.39356,-7.5553 -1.43946,-11.39437 -0.39853,-5.73688 -2.15869,-10.64453 -6.41404,-14.75056 -9.40302,-8.44296 -20.69379,-14.20159 -33.28891,-16.0835 -3.84942,-0.34377 -3.84956,-0.60834 -7.36287,-0.0524 -10.8775,1.72129 -29.26776,16.26717 15.89125,-11.32003 -6.51447,4.2854 -11.9824,9.91398 -17.60813,15.27059 0,0 -28.96799,11.73921 -28.96799,11.73921 z"
       sodipodi:nodetypes="ccsccccccccssccccccccccccsccc" />
    <path
       style="fill:#ffffff;fill-opacity:1;fill-rule:nonzero;stroke:#000015;stroke-width:10.30297089;stroke-linecap:square;stroke-linejoin:round;stroke-miterlimit:26;stroke-opacity:0;stroke-dasharray:none;stroke-dashoffset:0"
       d="m 444.91291,318.34727 c -1.28738,-13.96382 -3.63969,-18.71709 -12.5768,-25.41381 -1.74819,-1.30995 -37.41107,-7.91968 -39.31197,-7.28606 -0.61754,0.20586 -1.12281,0.776 -1.12281,1.26699 0,0.49099 -1.35571,3.09603 -3.01268,5.78896 -2.80751,4.56277 -3.23369,4.86038 -6.25748,4.36969 -2.50088,-0.40583 -5.09652,0.40448 -11.32177,3.53447 -4.44233,2.23357 -8.72047,4.06103 -9.50696,4.06103 -3.43746,0 -11.81082,-12.60929 -15.42023,-23.22105 l -1.66809,-4.90422 -27.98302,-4.91664 -27.98302,-4.91664 -6.17526,3.04515 -6.17526,3.04516 0.0786,-4.10284 0.0786,-4.10283 -22.47653,-3.93866 c -12.36209,-2.16627 -22.31187,-4.10332 -22.11063,-4.30457 0.35424,-0.35424 29.55431,1.31707 39.67789,2.27102 l 4.99172,0.47037 1.13654,-17.85158 c 1.38601,-21.76981 1.92703,-23.15655 11.74767,-30.11161 3.86433,-2.73675 9.87919,-7.47624 13.36633,-10.53219 11.88823,-10.41823 17.9515,-13.1088 33.53408,-14.88072 10.79948,-1.22803 19.04504,-0.54119 18.25389,1.5205 -0.75864,1.97698 -13.0376,10.65169 -17.07889,12.06571 -2.36208,0.82648 -6.19842,1.07311 -11.06119,0.7111 -8.35432,-0.62193 -8.808,-0.36622 -10.89306,6.13969 -1.94247,6.06098 -3.80733,8.29681 -7.95725,9.54016 -2.08965,0.62607 -4.1064,1.85447 -4.48165,2.72977 -0.37525,0.8753 -0.89895,10.55492 -1.16377,21.51026 l -0.48149,19.9188 4.32985,0.58834 c 2.38142,0.32359 11.32297,0.88656 19.87011,1.25105 l 15.54026,0.66271 -0.58698,-15.78237 c -0.68805,-18.49989 -0.16292,-22.69945 2.9567,-23.64556 7.10075,-2.1535 28.5562,-11.31114 38.16007,-16.28754 l 11.21427,-5.81085 1.30582,3.15766 c 3.14249,7.59901 4.84421,20.0141 4.91131,35.83094 0.0369,8.71287 -0.2823,18.18069 -0.70947,21.0396 l -0.77668,5.19802 6.71728,-0.0144 c 3.69449,-0.008 8.72221,-0.71719 11.17271,-1.57615 5.14246,-1.80256 9.66157,-1.41289 18.31683,1.57938 5.15905,1.78358 13.4955,2.50158 63.36634,5.45766 67.66755,4.01098 112.70225,7.24296 115.53732,8.29172 1.74983,0.6473 1.43089,0.97246 -2.29726,2.34214 -9.47486,3.48096 -24.91998,7.60558 -91.94146,24.553 -38.3974,9.70936 -70.54501,17.93441 -71.43913,18.27787 -1.38318,0.53133 -1.72528,-0.45593 -2.29344,-6.61862 l 0,0 z"
       id="path5134" />
    <path
       style="fill:#ffffff;fill-opacity:1;fill-rule:nonzero;stroke:#000015;stroke-width:10.30297089;stroke-linecap:square;stroke-linejoin:round;stroke-miterlimit:26;stroke-opacity:0;stroke-dasharray:none;stroke-dashoffset:0"
       d="M 492.96269,135.23507 C 471.93212,97.702423 464.36852,83.380875 465.2797,82.817734 c 3.84171,-2.374304 29.93928,-6.756064 52.36421,-8.791906 15.18349,-1.37843 37.22605,-1.236784 41.58416,0.26722 l 3.46534,1.195908 -0.0698,6.421476 c -0.1139,10.482692 -9.13684,34.547698 -32.39006,86.387368 l -8.33414,18.57976 -28.93672,-51.64249 z"
       id="path5136" />
    <path
       style="fill:#ffffff;fill-opacity:1;fill-rule:nonzero;stroke:#000015;stroke-width:10.30297089;stroke-linecap:square;stroke-linejoin:round;stroke-miterlimit:26;stroke-opacity:0;stroke-dasharray:none;stroke-dashoffset:0"
       d="m 361.70331,154.29345 c -14.614,-6.70386 -17.79362,-22.55299 -6.54789,-32.63853 6.53706,-5.86266 19.09129,-7.99285 27.1822,-4.61225 7.73324,3.23115 14.43909,11.83681 14.49246,18.59827 0.0298,3.77721 -2.51579,9.54311 -5.72384,12.96471 -6.62036,7.06104 -20.53966,9.75364 -29.40293,5.6878 z"
       id="path5138" />
    <path
       style="fill:#ffffff;fill-opacity:1;fill-rule:nonzero;stroke:#000015;stroke-width:10.30297089;stroke-linecap:square;stroke-linejoin:round;stroke-miterlimit:26;stroke-opacity:0;stroke-dasharray:none;stroke-dashoffset:0"
       d="m 539.53622,438.30624 -50.78404,-60.17721 -7.50003,-1.08048 c -4.12501,-0.59427 -8.03037,-0.87698 -8.67858,-0.62824 -1.83045,0.70241 -8.60065,10.59299 -25.65457,37.47877 -21.40284,33.74191 -28.64005,44.08745 -29.12056,41.62764 -0.68994,-3.532 1.94882,-12.58033 14.0167,-48.06329 6.57478,-19.33168 12.88854,-38.61962 14.03058,-42.86208 l 2.07644,-7.71358 13.12945,6.47595 c 7.2212,3.56178 13.77493,6.47595 14.56385,6.47595 3.27701,0 0.89943,-3.79217 -8.15689,-13.00997 -5.27519,-5.36927 -8.95094,-9.75946 -8.16831,-9.75599 3.16931,0.0141 24.70782,6.15685 32.11602,9.15951 8.35997,3.38842 9.04936,4.0083 16.73627,15.04897 8.70581,12.50411 82.86244,126.51653 82.51537,126.86361 -0.18572,0.1857 -23.19048,-26.7421 -51.1217,-59.83956 l 0,0 z"
       id="path5140" />
    <path
       style="fill:#ffffff;fill-opacity:1;fill-rule:nonzero;stroke:#000015;stroke-width:10.30297089;stroke-linecap:square;stroke-linejoin:round;stroke-miterlimit:26;stroke-opacity:0;stroke-dasharray:none;stroke-dashoffset:0"
       d="m 298.36544,419.39067 c -0.76604,-1.23947 16.13246,-12.80404 20.13852,-13.78188 1.97747,-0.48268 8.78915,-1.2878 15.13708,-1.78917 16.19559,-1.27913 17.84555,-3.17187 8.28482,-9.50394 -2.64817,-1.75388 -6.18752,-4.90247 -7.86523,-6.99686 -2.77165,-3.46002 -3.04935,-4.45524 -3.03902,-10.89109 0.0149,-9.30851 3.1843,-16.06377 16.33924,-34.82581 11.55266,-16.47682 13.40925,-20.68039 11.68126,-26.44793 -1.10399,-3.68479 -1.02563,-4.05153 1.2363,-5.78591 4.24729,-3.2567 18.86781,-9.94893 21.04796,-9.63426 2.48888,0.35923 5.06582,6.50945 6.5257,15.57444 1.11206,6.90528 -0.31429,19.50796 -4.36598,38.57597 -4.70139,22.12569 -9.11598,31.16007 -21.16727,43.31849 -15.8938,16.0351 -23.0359,20.05222 -37.66525,21.18509 -20.35353,1.57613 -25.80529,1.78411 -26.28813,1.00286 z"
       id="path5142" />
    <path
       style="fill:#ffffff;fill-opacity:1;fill-rule:nonzero;stroke:#000015;stroke-width:10.30297089;stroke-linecap:square;stroke-linejoin:round;stroke-miterlimit:26;stroke-opacity:0;stroke-dasharray:none;stroke-dashoffset:0"
       d="m 557.24787,274.23383 c -0.81683,-0.17965 -10.37876,-0.81983 -21.24873,-1.42262 -10.94212,-0.6068 -20.33654,-1.57151 -21.04724,-2.16133 -0.706,-0.58593 -5.07576,-5.41958 -9.71058,-10.74145 l -8.42692,-9.67611 3.8609,-10.74088 c 4.0182,-11.17848 19.55568,-47.77212 20.87284,-49.1594 0.72936,-0.76818 46.59082,81.81642 46.59082,83.89799 0,0.57884 -8.26336,0.58172 -10.89109,0.004 z"
       id="path5144" />
    <path
       style="fill:#ff7f2a;fill-opacity:1;fill-rule:nonzero;stroke:#000015;stroke-width:10.30297088999999922;stroke-linecap:square;stroke-linejoin:round;stroke-miterlimit:26;stroke-opacity:0;stroke-dasharray:none;stroke-dashoffset:0"
       d="m 461.6467,212.29882 c -8.0623,-8.22663 -28.13205,-25.91498 -33.23654,-29.29281 -5.16847,-3.42017 -3.56412,-3.92815 5.69783,-1.80409 11.26421,2.58325 16.57627,5.72667 21.61859,12.79285 4.43481,6.21482 13.0688,23.04326 12.24515,23.86691 -0.24258,0.24258 -3.08885,-2.2607 -6.32503,-5.56286 l 0,0 z"
       id="path5146" />
    <path
       style="fill:#ff7f2a;fill-opacity:1;fill-rule:nonzero;stroke:#000015;stroke-width:10.30297089;stroke-linecap:square;stroke-linejoin:round;stroke-miterlimit:26;stroke-opacity:0;stroke-dasharray:none;stroke-dashoffset:0"
       d="m 302.60921,416.16513 c 10.5019,-8.38426 14.02919,-9.81823 28.65969,-11.65119 14.55628,-1.82365 17.06808,-2.48156 17.06808,-4.47065 0,-0.69723 -3.11622,-3.78549 -6.92493,-6.86278 -8.80988,-7.11806 -10.30256,-9.90619 -9.65076,-18.02628 0.65109,-8.11119 4.14787,-15.45176 15.30237,-32.12331 11.97401,-17.89639 12.50989,-19.02772 12.59108,-26.58197 l 0.0684,-6.36102 6.73385,-3.64574 c 3.70362,-2.00517 8.54989,-4.2451 10.7695,-4.97764 3.80284,-1.25505 4.13918,-1.20402 5.83044,0.8846 0.98714,1.21906 2.54672,5.59621 3.46573,9.72701 1.55498,6.98935 1.55983,8.37814 0.0699,20.01326 -1.93823,15.13565 -5.67087,31.88375 -9.11423,40.89492 -3.83537,10.03703 -8.96772,17.14805 -19.98805,27.69397 -15.17664,14.52331 -20.8555,16.71206 -47.27206,18.21957 l -11.88118,0.67802 4.27223,-3.41077 z"
       id="path5148" />
    <path
       style="fill:#b2ff00;fill-opacity:1;fill-rule:nonzero;stroke:#000015;stroke-width:10.30297088999999922;stroke-linecap:square;stroke-linejoin:round;stroke-miterlimit:26;stroke-opacity:0;stroke-dasharray:none;stroke-dashoffset:0;opacity:0.96999999999999997;filter:url(#filter5168)"
       d="m 445.93994,321.16905 c -1.77303,-10.84661 -2.51393,-14.48841 -3.44143,-16.91584 -1.69744,-4.4425 -8.87944,-11.5087 -12.83749,-12.63048 -6.46151,-1.83131 -29.87472,-5.94147 -33.84508,-5.94147 -3.46533,0 -4.08319,0.39199 -5.85238,3.71287 -3.16666,5.94403 -4.50351,7.17822 -7.77533,7.17822 -1.68253,0 -7.08516,1.74617 -12.00584,3.88039 l -8.94668,3.88039 -3.77354,-4.28696 c -3.64874,-4.14519 -8.50048,-13.04981 -11.1176,-20.40465 l -1.26838,-3.56448 -28.3201,-4.97091 -28.3201,-4.97092 -5.69307,2.85658 -5.69307,2.85659 0,-3.87301 0,-3.87301 -6.68317,-1.12473 c -15.43387,-2.5974 -29.91279,-5.38689 -29.59748,-5.7022 0.35544,-0.35543 27.57939,1.37268 32.98025,2.09351 l 3.13524,0.41844 0.64097,-8.58771 c 1.66399,-22.29397 2.51111,-28.14878 4.58977,-31.72199 2.64905,-4.55368 28.52554,-25.04554 35.87638,-28.41087 6.68976,-3.06268 18.48578,-5.39046 27.21444,-5.37039 9.67643,0.0222 10.33213,0.95816 3.98766,5.69178 -9.01179,6.72371 -11.37455,7.61368 -21.64901,8.15444 l -9.40594,0.49505 -3.19101,6.62498 c -2.76703,5.74473 -3.77329,6.88254 -7.57338,8.56351 l -4.38237,1.93853 -0.58541,9.25827 c -0.32197,5.09205 -0.70108,14.82758 -0.84246,21.63451 l -0.25706,12.37624 7.9208,0.62256 c 4.35643,0.3424 13.37871,0.92617 20.0495,1.29726 l 12.12871,0.67472 0,-18.18724 c 0,-13.02839 0.35106,-18.64534 1.23763,-19.80224 0.68069,-0.88826 5.91584,-3.45609 11.63366,-5.7063 5.71782,-2.25021 16.71011,-7.13178 24.42731,-10.84793 l 14.03125,-6.75665 1.05336,2.62024 c 3.59981,8.95457 4.46927,16.57271 4.5083,39.50147 l 0.0392,23.01984 4.20792,-4e-5 c 2.31433,-2e-5 4.2079,-0.44559 4.2079,-0.99014 0,-0.54456 -1.37579,-0.9901 -3.05733,-0.9901 -2.97063,0 -3.04172,-0.10528 -2.50722,-3.71287 2.83089,-19.10678 1.23141,-37.05683 -5.4038,-60.64357 -0.34277,-1.21848 0.82666,-1.48515 6.5129,-1.48515 9.66748,0 18.7789,2.93732 23.37818,7.53659 4.49311,4.49312 11.54016,17.29288 16.08677,29.21887 4.88393,12.81083 8.14128,18.88803 13.46722,25.12573 6.93206,8.11878 7.06956,7.74251 -2.6943,7.37266 -21.22275,-0.8039 0.45569,0.86395 65.10867,5.00918 38.39109,2.46145 74.48019,4.91479 80.19802,5.45188 5.71782,0.53708 11.48762,0.97688 12.82178,0.97733 4.35015,0.001 0.86258,1.74447 -9.85149,4.92349 -7.85287,2.33005 -136.22021,35.49021 -151.67059,39.17991 -2.41973,0.57785 -2.70969,0.33567 -3.20169,-2.67418 z m -10.9693,-55.96506 c -8.27591,-2.99491 -17.13784,-3.34858 -22.27723,-0.88906 -3.41478,1.63418 -3.422,1.65056 -0.49505,1.12241 8.97197,-1.61893 12.17908,-1.57019 18.81188,0.28587 9.83575,2.75235 12.15913,2.44775 3.9604,-0.51922 l 0,0 z"
       id="path5150" />
    <flowRoot
       xml:space="preserve"
       id="flowRoot5172"
       style="font-size:40px;font-style:normal;font-weight:normal;fill:#000000;fill-opacity:1;stroke:none;font-family:Bitstream Vera Sans"><flowRegion
         id="flowRegion5174"><rect
           id="rect5176"
           width="29"
           height="55"
           x="279"
           y="237.36218" /></flowRegion><flowPara
         id="flowPara5178">1</flowPara></flowRoot>    <flowRoot
       xml:space="preserve"
       id="flowRoot5180"
       style="font-size:40px;font-style:normal;font-weight:normal;fill:#000000;fill-opacity:1;stroke:none;font-family:Bitstream Vera Sans"><flowRegion
         id="flowRegion5182"><rect
           id="rect5184"
           width="37"
           height="41"
           x="354"
           y="227.36218" /></flowRegion><flowPara
         id="flowPara5186">999</flowPara></flowRoot>    <text
       xml:space="preserve"
       style="font-size:40px;font-style:normal;font-weight:normal;fill:#000000;fill-opacity:1;stroke:none;font-family:Bitstream Vera Sans"
       x="371"
       y="252.36218"
       id="text5188"><tspan
         sodipodi:role="line"
         id="tspan5190"
         x="371"
         y="252.36218">9</tspan></text>
    <flowRoot
       xml:space="preserve"
       id="flowRoot5192"
       style="font-size:40px;font-style:normal;font-weight:normal;fill:#000000;fill-opacity:1;stroke:none;font-family:Bitstream Vera Sans"><flowRegion
         id="flowRegion5194"><rect
           id="rect5196"
           width="34"
           height="48"
           x="449"
           y="279.36218" /></flowRegion><flowPara
         id="flowPara5198">6</flowPara></flowRoot>    <flowRoot
       xml:space="preserve"
       id="flowRoot5200"
       style="font-size:40px;font-style:normal;font-weight:normal;fill:#000000;fill-opacity:1;stroke:none;font-family:Bitstream Vera Sans"><flowRegion
         id="flowRegion5202"><rect
           id="rect5204"
           width="27"
           height="58"
           x="567"
           y="315.36218" /></flowRegion><flowPara
         id="flowPara5206">2</flowPara></flowRoot>  </g>
</svg>
